<svg width="39" height="39" viewBox="0 0 39 39" fill="none" xmlns="http://www.w3.org/2000/svg">
<path d="M14.5821 11.847C15.1295 11.5127 15.8443 11.6854 16.1787 12.2328L19.8114 18.1798L25.7584 14.5472C26.3058 14.2128 27.0207 14.3855 27.355 14.9329C27.6894 15.4803 27.5167 16.1952 26.9693 16.5295L21.0222 20.1622L24.6549 26.1092C24.9893 26.6566 24.8166 27.3714 24.2691 27.7058C23.7217 28.0402 23.0069 27.8675 22.6725 27.3201L19.0399 21.373L13.0928 25.0057C12.5454 25.3401 11.8306 25.1674 11.4962 24.62C11.1619 24.0725 11.3346 23.3577 11.882 23.0233L17.829 19.3907L14.1964 13.4436C13.862 12.8962 14.0347 12.1814 14.5821 11.847Z" fill="#E7E7E7"/>
</svg>
