<svg width="89" height="39" viewBox="0 0 89 39" fill="none" xmlns="http://www.w3.org/2000/svg">
<g clip-path="url(#clip0_0_3)">
<path d="M69.3833 38.2112C79.935 38.2112 88.4889 29.6573 88.4889 19.1056C88.4889 8.55387 79.935 0 69.3833 0C58.8316 0 50.2777 8.55387 50.2777 19.1056C50.2777 29.6573 58.8316 38.2112 69.3833 38.2112Z" fill="#5454D4"/>
<path d="M66.6612 25.85C66.2685 25.4573 66.2685 24.8206 66.6612 24.4279L71.9835 19.1056L66.6612 13.7833C66.2685 13.3907 66.2685 12.754 66.6612 12.3613C67.0539 11.9686 67.6906 11.9686 68.0833 12.3613L74.1166 18.3946C74.5093 18.7873 74.5093 19.424 74.1166 19.8167L68.0833 25.85C67.6906 26.2427 67.0539 26.2427 66.6612 25.85Z" fill="white"/>
<path d="M19.1053 38.2112C8.55357 38.2112 -0.000301361 29.6573 -0.000301361 19.1056C-0.000301361 8.55387 8.55357 0 19.1053 0C29.657 0 38.2109 8.55387 38.2109 19.1056C38.2109 29.6573 29.657 38.2112 19.1053 38.2112Z" fill="white" fill-opacity="0.2"/>
<path d="M21.8249 25.4567C22.1684 25.1132 22.1684 24.5562 21.8249 24.2126L17.1687 19.5564L21.8249 14.9003C22.1684 14.5567 22.1684 13.9997 21.8249 13.6562C21.4813 13.3126 20.9243 13.3126 20.5808 13.6562L15.3026 18.9344C14.959 19.2779 14.959 19.8349 15.3026 20.1785L20.5808 25.4567C20.9243 25.8002 21.4813 25.8002 21.8249 25.4567Z" fill="white"/>
</g>
<defs>
<clipPath id="clip0_0_3">
<rect width="89" height="39" fill="white"/>
</clipPath>
</defs>
</svg>
